<?xml version="1.0" encoding="UTF-8"?>
<svg id="Layer_1" xmlns="http://www.w3.org/2000/svg" viewBox="0 0 499.73 497.16">
  <path d="M290,497.16h-1v-174.5c19.33-.33,38.67-.67,58-1,3.67-23.33,7.33-46.67,11-70l-1.5-1.5c-22.5-.17-45-.33-67.5-.5-.5-68.79-6.63-89.44,72-86v-60c-75.87-15.13-144.39-3.54-150,86-.5,8.03,2.53,59.06-.5,60.5-20.83.17-41.67.33-62.5.5v71c21,.33,42,.67,63,1v174.5h-2C94.12,478.36,6.08,379.45,0,263.16v-27C12.06,47.7,219.4-62.68,382.5,38.16c189.96,117.44,141.93,416.5-92.5,459Z"/>
</svg>