<?xml version="1.0" encoding="UTF-8"?>
<svg xmlns="http://www.w3.org/2000/svg" viewBox="0 0 479.82 479.34">
  <defs>
    <style>
      .cls-1 {
        fill: #66fcf1;
      }

      .cls-2 {
        fill: #202833;
      }
    </style>
  </defs>
  <g id="Layer_3">
    <path class="cls-2" d="M239.85,479.2c-35.53.45-70.97-.9-105.99-7.43-19.06-3.55-37.57-8.96-54.93-17.82-31.96-16.3-51.68-42.71-62.75-76.22-9.7-29.37-13.15-59.79-14.79-90.45-2.23-41.82-1.98-83.62,2.48-125.31,2.61-24.41,7.29-48.38,16.55-71.29C35.74,52.77,63.67,28.74,102.08,16.16,136.5,4.89,172.15,1.92,208.01.64c36.83-1.31,73.65-.8,110.33,3.23,24.58,2.7,48.71,7.4,71.72,16.89,37.64,15.51,61.32,43.54,73.75,81.77,10.99,33.79,13.98,68.77,15.3,103.96,1.4,37.33.89,74.64-3.18,111.83-2.43,22.24-6.67,44.09-14.32,65.21-15.28,42.18-45.23,68.41-87.65,81.36-33.3,10.17-67.62,12.93-102.13,14.25-10.65.41-21.32.06-31.98.06Z"/>
  </g>
  <g id="Layer_2">
    <g>
      <path class="cls-1" d="M167.32,395.39c-2.33,0-4.69-.26-7.06-.8-30.11-6.85-56.11-21.15-75.2-41.33-28.15-29.76-42.82-73.49-40.26-119.96,2.61-47.44,22.38-90.13,54.22-117.12,18.4-15.6,40.79-25.98,66.54-30.86,17.19-3.25,33.77,8.04,37.03,25.24,3.25,17.19-8.04,33.77-25.24,37.03-14.85,2.81-27.41,8.51-37.35,16.93-18.35,15.56-30.29,42.58-31.92,72.27-1.61,29.18,6.79,55.76,23.03,72.93,10.44,11.04,25.39,19.02,43.23,23.08,17.06,3.88,27.75,20.87,23.86,37.93-3.35,14.69-16.41,24.66-30.87,24.66Z"/>
      <path class="cls-1" d="M303.38,394.9c-17.5,0-31.68-14.19-31.68-31.68v-110.12c0-17.5,14.19-31.68,31.68-31.68s31.68,14.19,31.68,31.68v110.12c0,17.5-14.19,31.68-31.68,31.68Z"/>
      <circle class="cls-1" cx="221.99" cy="245.79" r="31.17"/>
      <circle class="cls-1" cx="388.42" cy="364.61" r="31.17"/>
    </g>
  </g>
</svg>