<?xml version="1.0" encoding="UTF-8"?>
<svg id="Layer_1" xmlns="http://www.w3.org/2000/svg" viewBox="0 0 470.33 470.26">
  <path d="M224.6.19c138.29-5.49,251.51,108.32,245.5,246.5-5.27,121.03-107.46,220.63-228.5,223.5C114.14,473.21,3.79,370.53.1,242.69-3.58,115.38,96.89,5.26,224.6.19ZM170.6,94.19c-39.95,3.86-72.8,37.88-76.5,77.5v128c3.79,39.26,37.29,72.78,76.5,76.5h128c40.42-3.74,73.76-37.09,77.5-77.5v-127c-3.33-36.58-32.89-70.56-69.5-76.5-45.33-.33-90.67-.67-136-1Z"/>
  <path d="M169.6,121.19h131c22.87,2.9,45.7,25.84,48.5,48.5v131c-2.87,22.62-25.98,45.61-48.5,48.5h-130c-23.86-2.94-46.68-25.77-49.5-49.5v-130c2.89-22.72,25.7-45.61,48.5-48.5ZM307.6,144.19c-17.57,1.81-19.06,29.53-3,33,27.32,5.9,28.32-35.6,3-33ZM235.6,165.19c-54.27.5-87.46,63.23-57.5,108.5,25,37.77,81.6,41.31,111,7,38.42-44.83,5.65-116.04-53.5-115.5Z"/>
  <path d="M227.6,191.19c22.89-3.35,47.95,10.8,52.5,34.5,7.8,40.61-38.59,69.89-71.5,44.5-31.1-23.99-14.73-74.07,19-79Z"/>
</svg>