<?xml version="1.0" encoding="UTF-8"?>
<svg id="Layer_1" xmlns="http://www.w3.org/2000/svg" viewBox="0 0 700.83 701.11">
  <path d="M327.11.59c91.71-5.24,182.56,24.5,252,84,51.62,44.23,93.33,109.52,110.5,175.5,10.77,41.39,12.99,84.43,10,127-11.11,100.42-65.69,193.85-148.5,251.5-169.02,117.67-404.35,63.53-505.5-114.5C21.6,481.84,3.4,423.75.61,375.09c-4.61-80.38,17-160.36,63-226,38.73-55.25,99.22-102.74,162.5-126.5C255.46,11.57,295.81,2.38,327.11.59ZM191.11,127.59c-9.68,1.18-23.93,9.24-30.5,16.5-20.67,22.83-15.15,60.98,11.5,76.5,47.19,27.49,97.1-28.12,67.5-71.5-10.14-14.86-30.7-23.68-48.5-21.5ZM446.11,258.59c-27.8,2.79-51.4,21.78-68,43-.17-10.17-.33-20.33-.5-30.5-.01-.33,1.22-4.53-1.5-5.5h-79c-.83,1.17-1.67,2.33-2.5,3.5v270c.83,1.17,1.67,2.33,2.5,3.5h82c.83-.83,1.67-1.67,2.5-2.5v-151c2.07-27.46,13.34-51.31,43.5-54.5,35.38-3.74,49.9,17.99,52.5,50.5v155l2.5,2.5h81l2.5-2.5v-178c-3.55-32.46-11.22-69.5-40.5-88.5-19.99-12.97-53.49-17.36-77-15ZM156.11,265.59c-.5.83-1,1.67-1.5,2.5v272c.83.83,1.67,1.67,2.5,2.5h81c1.17-1.17,2.33-2.33,3.5-3.5v-270c-.83-1.17-1.67-2.33-2.5-3.5h-83Z"/>
</svg>