<?xml version="1.0" encoding="UTF-8"?>
<svg id="Layer_1" xmlns="http://www.w3.org/2000/svg" viewBox="0 0 537 537">
  <path d="M303.66,271.55c-2.35,5.93,91.09,73.82,85.09,76.99-95.7-47.86-191.41-95.71-287.11-143.56v-2.31c112.1.58,224.2,1.15,336.32,1.73-14.05,10.83-131.54,60.17-134.3,67.15Z"/>
  <path d="M268.5,0C120.21,0,0,120.21,0,268.5s120.21,268.5,268.5,268.5,268.5-120.22,268.5-268.5S416.78,0,268.5,0ZM439.69,385.59c-114.43-.58-228.84-1.16-343.26-1.74v-179.45c20.68-10.43,160.17-85.92,169.61-87.4,9.67-1.53,154.31,75.7,175.39,86.25l-1.74,182.34Z"/>
</svg>